<?xml version="1.0" encoding="UTF-8"?>
<svg id="Ebene_1" data-name="Ebene 1" xmlns="http://www.w3.org/2000/svg" viewBox="0 0 512 512">
  <defs>
    <style>
      .cls-1, .cls-2 {
        fill: #fff;
      }

      .cls-3 {
        fill: #e52320;
      }

      .cls-2 {
        stroke: #000;
        stroke-miterlimit: 10;
      }
    </style>
  </defs>
  <path class="cls-2" d="M275.84,37.33l218.52,378.66c1.28,2.65,2.17,4.95,2.79,7.38,2.03,7.96,.87,23.5-17.58,25.99-1.03,.14-2.05,.18-2.05,.18l-442.5-.59s-14.78,.78-19.45-14.39c-2.15-6.97-1.08-14.52,2.57-20.83C45.79,365.95,212.3,77.58,234.7,38.8c2.65-4.58,6.46-8.42,11.16-10.87,6.22-3.24,15.09-5.04,24.22,2.5,2.33,1.92,4.26,4.29,5.77,6.9Z"/>
  <path class="cls-3" d="M489.65,431.42c.84-3.59-.77-9.56-3.18-13.53-15.29-25.12-215.78-374.01-217.67-376.72-1.97-2.82-5.35-7.88-12.79-7.88s-13.12,7.88-13.12,7.88c0,0-215.99,374.53-218.8,379.88-2.82,5.35-2.55,10.35,0,13.8,1.5,2.02,3.66,3.84,6.08,5.05,2.26,1.13,4.75,1.71,7.27,1.71H478.02c6.41,0,10.44-5.11,11.63-10.18Zm-401.65-33.64L256.1,105.96l168.28,291.81H88Z"/>
  <circle cx="265.58" cy="216.2" r="15.28"/>
  <path d="M226.13,247.33l-32.65,73s-1.26,3-1.57,6.54c-.32,3.74-8.43,53.6-6.86,53.6,3.22,0,16.27-7.95,18.2-19.63,.64-3.87,5.52-32.47,5.52-32.47l15.29-29.04s10.53,80.34,13.78,84.81c5.01-2.98,14-8.2,11.78-23.54-.43-2.96-8.29-69.6-8.29-69.6l14.87-33.96s4.21,5.41,12.05,18.77c-2.39,1.84-10.22,7.28-13.21,9.49-5.12,3.77-7.16,15.12-4.25,18.78,6.52-3.52,22.92-15.68,33.4-22.62,2.12-1.4,2.79-4.2,1.52-6.4-3.78-6.55-12.63-20.02-22.58-34.68-4.88-7.19-12.85-10.04-20.11-9.11-1.2,.15-25.17,3.82-28.36,4.2,.97-1.35,10.66-13.98,10.95-14.42,2.98-4.55,4.85-13.41-.97-17.61-4.36,4.01-27.6,36.39-29.05,39.31-1.27,2.58,.82,7.6,5.22,7.6,5.22-.38,25.32-3.01,25.32-3.01Z"/>
  <rect class="cls-1" x="201.82" y="282.29" width="46.32" height="4.04" transform="translate(62.91 -40.01) rotate(11.8)"/>
  <path d="M260.43,384.14h127.32s2.59-.56,3.15-2.41c.56-1.85,.74-2.41,0-3.33s-43.12-56.07-43.12-56.07c0,0-5.18-9.07-16.47-9.07s-16.47,7.22-16.47,7.22l-14.62,17.03s-2.22,6.11-14.62,9.44c-1.5,.33-3.96,3.24-3.96,3.24l-22.55,26.39s-2,2.56-1.43,4.4,1.29,3.16,2.77,3.16Z"/>
  <path d="M296.25,339.04l-4.43,3.43s-1.21,.5-1.57,0-51.6-70.4-51.6-70.4l3.55-4.73,53.48,70.59s.95,.81,.56,1.11Z"/>
  <polygon class="cls-1" points="250.15 274 245.62 284.38 244.46 283.87 249 273.49 250.15 274"/>
  <path d="M169.91,348s.78,8.81,.79,8.87c.04,.48,2.04,2.68,2.09,3.32,.03,.41,.03,17.98,.01,18.15s-.04,1-1.16,1.19-4.4,.56-7.33,.06c-1.1-.34-1.31-.52-1.34-.72s-.17-18.35-.17-18.48c0-.83,2.11-2.81,2.11-3.42,0-.29,.83-8.95,.83-8.95,0,0-.51-.18-.5-.62s.5-1.13,.49-1.19-.31-.27-.31-.45,.27-.42,.31-.42h3.89s.56,.11,.57,.33-.19,.44-.2,.46,.33,.96,.33,1.13,.05,.51-.43,.75Z"/>
  <path d="M242.48,219.54s-8.78-1.03-8.84-1.04c-.48-.06-3.04,1.45-3.67,1.36-.4-.06-17.6-3.65-17.77-3.7s-.97-.25-.93-1.37,.35-4.42,1.44-7.19c.55-1.01,.77-1.18,.98-1.16s18,3.59,18.13,3.62c.81,.17,2.32,2.64,2.92,2.77,.28,.06,8.59,2.65,8.59,2.65,0,0,.28-.46,.71-.36s1,.72,1.06,.72,.32-.25,.5-.21,.36,.35,.35,.39l-.8,3.81s-.22,.53-.44,.49-.39-.28-.41-.29-1.01,.13-1.17,.09-.51-.06-.65-.58Z"/>
</svg>